<?xml version="1.0" encoding="UTF-8"?> <svg xmlns="http://www.w3.org/2000/svg" width="103" height="103" viewBox="0 0 103 103"><defs><style>.a{fill:#fe6600;}.b{fill:#fff;}</style></defs><g transform="translate(-1061.5 -1133)"><circle class="a" cx="51.5" cy="51.5" r="51.5" transform="translate(1061.5 1133)"></circle><g transform="translate(1089.5 1160)"><g transform="translate(-155.103 -224.137)"><path class="b" d="M186.384,246.7l-1.409-1.943,2.373-.378a.728.728,0,0,0,.6-.6,8.808,8.808,0,0,0,0-2.91.726.726,0,0,0-.6-.6l-2.373-.377,1.409-1.942a.727.727,0,0,0,0-.85,8.907,8.907,0,0,0-2.058-2.061.725.725,0,0,0-.851,0l-1.944,1.411-.378-2.373a.725.725,0,0,0-.6-.6,8.851,8.851,0,0,0-2.914,0,.725.725,0,0,0-.6.6l-.378,2.373-1.946-1.411a.73.73,0,0,0-.852,0,8.953,8.953,0,0,0-2.056,2.06.727.727,0,0,0,0,.85l1.41,1.942-2.371.377a.726.726,0,0,0-.6.6,8.838,8.838,0,0,0,0,2.915.73.73,0,0,0,.6.6l2.371.377-1.41,1.944a.727.727,0,0,0,0,.851,9.015,9.015,0,0,0,2.055,2.057.727.727,0,0,0,.852,0l1.945-1.412.379,2.374a.726.726,0,0,0,.6.6,8.968,8.968,0,0,0,2.912,0,.724.724,0,0,0,.6-.6l.378-2.373,1.943,1.412a.728.728,0,0,0,.852,0,8.929,8.929,0,0,0,2.057-2.058A.723.723,0,0,0,186.384,246.7Zm-2.491,1.41-1.858-1.349a.73.73,0,0,0-.755-.062,4.7,4.7,0,0,1-.626.261.729.729,0,0,0-.487.575l-.36,2.268a7.893,7.893,0,0,1-1.409,0l-.362-2.268a.728.728,0,0,0-.487-.575,4.377,4.377,0,0,1-.621-.259.728.728,0,0,0-.758.06l-1.86,1.348a7.381,7.381,0,0,1-1-1l1.35-1.86a.724.724,0,0,0,.06-.756,4.368,4.368,0,0,1-.257-.618.726.726,0,0,0-.577-.49l-2.268-.361c-.023-.234-.034-.468-.034-.705s.011-.47.034-.7l2.268-.361a.731.731,0,0,0,.577-.49,4.39,4.39,0,0,1,.258-.621.729.729,0,0,0-.061-.755l-1.35-1.858a7.448,7.448,0,0,1,1-1l1.86,1.348a.73.73,0,0,0,.748.064,5.173,5.173,0,0,1,.629-.261.727.727,0,0,0,.489-.577l.362-2.269a7.525,7.525,0,0,1,1.408,0l.361,2.269a.728.728,0,0,0,.489.577,4.656,4.656,0,0,1,.627.261.726.726,0,0,0,.751-.062l1.859-1.35a7.492,7.492,0,0,1,.995,1l-1.349,1.859a.726.726,0,0,0-.063.751,5.093,5.093,0,0,1,.264.627.726.726,0,0,0,.575.488l2.268.361c.023.238.035.473.035.7s-.012.467-.035.705l-2.268.361a.722.722,0,0,0-.575.487,4.95,4.95,0,0,1-.263.626.722.722,0,0,0,.062.751l1.349,1.861A7.491,7.491,0,0,1,183.893,248.106Z"></path></g><g transform="translate(-155.103 -224.137)"><path class="b" d="M179.1,239.409a2.91,2.91,0,1,0,2.909,2.91A2.913,2.913,0,0,0,179.1,239.409Zm0,4.363a1.454,1.454,0,1,1,1.455-1.453A1.455,1.455,0,0,1,179.1,243.772Z"></path></g><g transform="translate(-155.103 -224.137)"><path class="b" d="M200.436,224.137H157.77A2.669,2.669,0,0,0,155.1,226.8v36.848a2.67,2.67,0,0,0,2.667,2.667h11.878v4.364h-5.09a.727.727,0,1,0,0,1.454h29.09a.727.727,0,1,0,0-1.454h-5.091v-4.364h11.879a2.67,2.67,0,0,0,2.667-2.667V226.8A2.67,2.67,0,0,0,200.436,224.137ZM156.558,226.8a1.214,1.214,0,0,1,1.212-1.213h42.666a1.214,1.214,0,0,1,1.212,1.213v32.242h-45.09ZM187.1,270.683h-16v-4.364h16Zm14.545-7.031a1.213,1.213,0,0,1-1.212,1.212H157.77a1.213,1.213,0,0,1-1.212-1.212V260.5h45.09Z"></path></g><g transform="translate(-155.103 -224.137)"><path class="b" d="M162.132,245.47a3.149,3.149,0,0,0,3.057-2.423h2.277a.727.727,0,0,0,0-1.454H165.19a3.148,3.148,0,1,0-3.058,3.877Zm0-4.848a1.7,1.7,0,1,1-1.7,1.7A1.7,1.7,0,0,1,162.132,240.622Z"></path></g><g transform="translate(-155.103 -224.137)"><path class="b" d="M162.132,235.772a3.15,3.15,0,0,0,3.058-2.424H169.1l1.378,1.378a.728.728,0,1,0,1.029-1.029l-1.591-1.591a.728.728,0,0,0-.514-.212H165.19a3.148,3.148,0,1,0-3.058,3.878Zm0-4.848a1.7,1.7,0,1,1-1.7,1.7A1.7,1.7,0,0,1,162.132,230.924Z"></path></g><g transform="translate(-155.103 -224.137)"><path class="b" d="M170.481,249.911l-1.378,1.377H165.19a3.152,3.152,0,1,0,0,1.455H169.4a.725.725,0,0,0,.514-.213l1.591-1.59a.728.728,0,1,0-1.029-1.029Zm-8.349,3.8a1.7,1.7,0,1,1,1.7-1.7A1.7,1.7,0,0,1,162.132,253.713Z"></path></g><g transform="translate(-155.103 -224.137)"><path class="b" d="M196.072,239.167a3.149,3.149,0,0,0-3.058,2.424h-2.277a.727.727,0,1,0,0,1.454h2.276a3.148,3.148,0,1,0,3.059-3.878Zm0,4.848a1.7,1.7,0,1,1,1.7-1.7A1.7,1.7,0,0,1,196.072,244.015Z"></path></g><g transform="translate(-155.103 -224.137)"><path class="b" d="M196.072,248.864a3.152,3.152,0,0,0-3.059,2.424H189.1l-1.377-1.377a.728.728,0,1,0-1.029,1.029l1.591,1.59a.723.723,0,0,0,.514.213h4.216a3.148,3.148,0,1,0,3.058-3.879Zm0,4.849a1.7,1.7,0,1,1,1.7-1.7A1.7,1.7,0,0,1,196.072,253.713Z"></path></g><g transform="translate(-155.103 -224.137)"><path class="b" d="M196.072,229.47a3.151,3.151,0,0,0-3.059,2.424H188.8a.726.726,0,0,0-.514.212l-1.591,1.591a.728.728,0,0,0,1.029,1.029l1.377-1.378h3.915a3.147,3.147,0,1,0,3.058-3.878Zm0,4.847a1.7,1.7,0,1,1,1.7-1.7A1.7,1.7,0,0,1,196.072,234.317Z"></path></g></g></g></svg> 