<?xml version="1.0" encoding="UTF-8"?> <svg xmlns="http://www.w3.org/2000/svg" width="103" height="103" viewBox="0 0 103 103"><defs><style>.a{fill:#fe6600;}.b{fill:#fff;}</style></defs><g transform="translate(-638 -1131)"><circle class="a" cx="51.5" cy="51.5" r="51.5" transform="translate(638 1131)"></circle><g transform="translate(7 -1324)"><g transform="translate(657.999 2482)"><path class="b" d="M37.394,236.01a.727.727,0,0,0-.727.726v5.146a.727.727,0,0,0,1.454,0v-5.146A.727.727,0,0,0,37.394,236.01Z" transform="translate(-36.667 -194.651)"></path><path class="b" d="M44.037,230.2a.727.727,0,0,0-.726.727v10.959a.726.726,0,0,0,1.453,0V230.923A.728.728,0,0,0,44.037,230.2Z" transform="translate(-36.667 -194.651)"></path><path class="b" d="M50.681,224.383a.726.726,0,0,0-.726.726v16.773a.726.726,0,0,0,1.453,0V225.109A.726.726,0,0,0,50.681,224.383Z" transform="translate(-36.667 -194.651)"></path><path class="b" d="M57.325,220.022a.727.727,0,0,0-.727.727v21.133a.726.726,0,0,0,1.453,0V220.749A.727.727,0,0,0,57.325,220.022Z" transform="translate(-36.667 -194.651)"></path><path class="b" d="M63.968,220.022a.727.727,0,0,0-.727.727v21.133a.726.726,0,0,0,1.453,0V220.749A.727.727,0,0,0,63.968,220.022Z" transform="translate(-36.667 -194.651)"></path><path class="b" d="M69.885,220.749v5.872a.726.726,0,1,0,1.453,0v-5.872a.726.726,0,1,0-1.453,0Z" transform="translate(-36.667 -194.651)"></path><path class="b" d="M76.528,214.208v10.233a.727.727,0,1,0,1.453,0V214.208a.727.727,0,1,0-1.453,0Z" transform="translate(-36.667 -194.651)"></path><path class="b" d="M83.171,214.208V225.9a.727.727,0,0,0,1.454,0V214.208a.727.727,0,0,0-1.454,0Z" transform="translate(-36.667 -194.651)"></path><path class="b" d="M79.762,205.167l3.622,3.623a.727.727,0,0,0,1.241-.515v-12.9a.728.728,0,0,0-.727-.727H71a.727.727,0,0,0-.514,1.241l3.624,3.623-8.4,8.4H51.745a3.965,3.965,0,0,0-2.826,1.17L36.88,221.121a.731.731,0,0,0-.213.514v9.249a.728.728,0,0,0,.449.671.714.714,0,0,0,.278.055.726.726,0,0,0,.514-.212L53.4,215.906H67.367a3.973,3.973,0,0,0,2.826-1.171Zm-12.4,9.286H53.1a.727.727,0,0,0-.514.212L38.121,229.13v-7.2l11.825-11.824a2.529,2.529,0,0,1,1.8-.744H66.013a.728.728,0,0,0,.513-.214l9.125-9.125a.724.724,0,0,0,0-1.026l-2.9-2.9H83.171v10.418l-2.9-2.9a.727.727,0,0,0-1.027,0L69.165,213.707A2.524,2.524,0,0,1,67.367,214.453Z" transform="translate(-36.667 -194.651)"></path><path class="b" d="M77.343,235.693c-1.1,0-1.63-.463-1.63-1.415a1.536,1.536,0,0,1,1.63-1.416,1.644,1.644,0,0,1,1.534.933.726.726,0,1,0,1.339-.564,3,3,0,0,0-2.142-1.733v-.541a.726.726,0,1,0-1.453,0v.54a2.919,2.919,0,0,0-2.361,2.781,2.762,2.762,0,0,0,3.083,2.869c1.089,0,1.639.475,1.639,1.414a1.536,1.536,0,0,1-1.63,1.416,1.644,1.644,0,0,1-1.533-.932.727.727,0,0,0-1.34.562,3,3,0,0,0,2.142,1.735v.54a.726.726,0,0,0,1.453,0v-.539a2.92,2.92,0,0,0,2.362-2.782A2.8,2.8,0,0,0,77.343,235.693Z" transform="translate(-36.667 -194.651)"></path><path class="b" d="M84.514,230.839a9.083,9.083,0,1,0-14.043,11.515.727.727,0,0,0,1.1-.95,7.63,7.63,0,1,1,11.8-9.672.726.726,0,0,0,1.146-.893Z" transform="translate(-36.667 -194.651)"></path></g></g></g></svg> 